<svg width="20" height="20" viewBox="0 0 20 20" fill="none" xmlns="http://www.w3.org/2000/svg">
<path d="M19.2178 8.9062L17.0615 6.3437C16.874 6.12495 16.5303 6.0937 16.2803 6.2812C16.0615 6.4687 16.0303 6.81245 16.2178 7.06245L18.249 9.4687H0.936539C0.624039 9.4687 0.374039 9.7187 0.374039 10.0312C0.374039 10.3437 0.624039 10.5937 0.936539 10.5937H18.249L16.2178 12.9999C16.0303 13.2187 16.0615 13.5624 16.2803 13.7812C16.374 13.8749 16.499 13.9062 16.624 13.9062C16.7803 13.9062 16.9365 13.8437 17.0303 13.7187L19.1865 11.1562C19.749 10.4687 19.749 9.5312 19.2178 8.9062Z" fill="#3056D3"/>
</svg>
