<svg width="20" height="20" viewBox="0 0 20 20" fill="none" xmlns="http://www.w3.org/2000/svg">
<g clip-path="url(#clip0_4_73)">
<path d="M10.0007 19.625C4.68825 19.625 0.406998 15.3125 0.406998 10C0.406998 4.6875 4.68825 0.40625 10.0007 0.40625C15.3132 0.40625 19.6257 4.6875 19.6257 10C19.6257 15.3125 15.3132 19.625 10.0007 19.625ZM10.0007 1.5C5.31325 1.5 1.50075 5.3125 1.50075 10C1.50075 14.6875 5.31325 18.5312 10.0007 18.5312C14.6882 18.5312 18.532 14.6875 18.532 10C18.532 5.3125 14.6882 1.5 10.0007 1.5Z" fill="#3056D3"/>
<path d="M8.9388 12.1875C8.72005 12.1875 8.53255 12.125 8.34505 11.9687L6.28255 9.96875C6.0638 9.75 6.0638 9.40625 6.28255 9.1875C6.5013 8.96875 6.84505 8.96875 7.0638 9.1875L8.9388 11.0312L12.9388 7.15625C13.1575 6.9375 13.5013 6.9375 13.72 7.15625C13.9388 7.375 13.9388 7.71875 13.72 7.9375L9.5638 12C9.34505 12.125 9.1263 12.1875 8.9388 12.1875Z" fill="#3056D3"/>
</g>
<defs>
<clipPath id="clip0_4_73">
<rect width="20" height="20" fill="white"/>
</clipPath>
</defs>
</svg>
