<svg width="20" height="21" viewBox="0 0 20 21" fill="none" xmlns="http://www.w3.org/2000/svg">
<g clip-path="url(#clip0_4_155)">
<path d="M10.001 0.849365C4.68848 0.849365 0.407227 5.13803 0.407227 10.4597C0.407227 15.7814 4.68848 20.1014 10.001 20.1014C15.3135 20.1014 19.626 15.7814 19.626 10.4597C19.626 5.13803 15.3135 0.849365 10.001 0.849365ZM10.001 19.0058C5.31348 19.0058 1.50098 15.1553 1.50098 10.4597C1.50098 5.76411 5.31348 1.94501 10.001 1.94501C14.6885 1.94501 18.5322 5.76411 18.5322 10.4597C18.5322 15.1553 14.6885 19.0058 10.001 19.0058Z" fill="#DC2626"/>
<path d="M12.8755 7.57975C12.6567 7.36062 12.313 7.36062 12.0942 7.57975L10.0005 9.67713L7.90674 7.57975C7.68799 7.36062 7.34424 7.36062 7.12549 7.57975C6.90674 7.79888 6.90674 8.14323 7.12549 8.36235L9.21924 10.4597L7.12549 12.5571C6.90674 12.7762 6.90674 13.1206 7.12549 13.3397C7.21924 13.4336 7.37549 13.4962 7.50049 13.4962C7.62549 13.4962 7.78174 13.4336 7.87549 13.3397L9.96924 11.2423L12.063 13.3397C12.1567 13.4336 12.313 13.4962 12.438 13.4962C12.563 13.4962 12.7192 13.4336 12.813 13.3397C13.0317 13.1206 13.0317 12.7762 12.813 12.5571L10.7817 10.4597L12.8755 8.36235C13.063 8.14323 13.063 7.79888 12.8755 7.57975Z" fill="#DC2626"/>
</g>
<defs>
<clipPath id="clip0_4_155">
<rect width="20" height="20.0346" fill="white" transform="translate(0 0.442383)"/>
</clipPath>
</defs>
</svg>
