<svg width="18" height="18" viewBox="0 0 18 18" fill="none" xmlns="http://www.w3.org/2000/svg">
<g clip-path="url(#clip0_4_261)">
<path d="M4.35872 17.6344C4.13372 17.6344 3.90872 17.5781 3.71184 17.4375C3.34622 17.1844 3.14934 16.7344 3.23372 16.2844L3.99309 11.5031L0.702468 8.09998C0.393093 7.7906 0.280593 7.31248 0.421218 6.8906C0.561843 6.46873 0.899342 6.18748 1.32122 6.1031L5.90559 5.37185L7.95872 1.01248C8.15559 0.618726 8.54934 0.365601 8.97122 0.365601C9.42122 0.365601 9.78684 0.618726 9.98372 1.01248L12.0931 5.34373L16.6775 6.07498C17.0993 6.13123 17.4368 6.4406 17.5775 6.86248C17.7181 7.28435 17.6056 7.76248 17.2962 8.07185L13.9775 11.475L14.765 16.2844C14.8493 16.7344 14.6525 17.1844 14.2868 17.4375C13.9493 17.6906 13.4993 17.7187 13.1056 17.5219L8.99934 15.2719L4.89309 17.5219C4.72434 17.6062 4.55559 17.6344 4.35872 17.6344ZM1.40559 7.42498L4.80872 10.9125C4.97747 11.0812 5.06184 11.3344 5.00559 11.5875L4.21809 16.4531C4.18997 16.5656 4.27434 16.6219 4.30247 16.65C4.35872 16.7062 4.41497 16.6781 4.44309 16.65L8.66184 14.3437C8.88684 14.2312 9.13997 14.2312 9.36497 14.3437L13.5837 16.6219C13.6118 16.6219 13.64 16.65 13.7243 16.6219C13.7525 16.5937 13.8087 16.5375 13.8087 16.425L13.0212 11.5312C12.9931 11.2781 13.0493 11.0531 13.2181 10.8562L16.5931 7.36873C16.6775 7.28435 16.6493 7.19998 16.6493 7.14373C16.6493 7.1156 16.5931 7.03123 16.5368 7.03123L11.8118 6.29998C11.5587 6.27185 11.3618 6.1031 11.2493 5.8781L9.13997 1.43435C9.11184 1.34998 9.05559 1.34998 8.99934 1.34998C8.97122 1.34998 8.91497 1.3781 8.85872 1.43435L6.74934 5.90623C6.63684 6.13123 6.43997 6.29998 6.18684 6.3281L1.48997 7.08748C1.40559 7.08748 1.37747 7.17185 1.37747 7.19998C1.34934 7.2281 1.32122 7.3406 1.40559 7.42498Z" fill="#3056D3"/>
</g>
<defs>
<clipPath id="clip0_4_261">
<rect width="18" height="18" fill="white"/>
</clipPath>
</defs>
</svg>
