<svg width="50" height="49" viewBox="0 0 50 49" fill="none" xmlns="http://www.w3.org/2000/svg">
<circle cx="47.7119" cy="46.3163" r="1.74121" transform="rotate(180 47.7119 46.3163)" fill="white"/>
<circle cx="47.7119" cy="16.7159" r="1.74121" transform="rotate(180 47.7119 16.7159)" fill="white"/>
<circle cx="47.7119" cy="31.3421" r="1.74121" transform="rotate(180 47.7119 31.3421)" fill="white"/>
<circle cx="47.7119" cy="1.74121" r="1.74121" transform="rotate(180 47.7119 1.74121)" fill="white"/>
<circle cx="32.3896" cy="46.3162" r="1.74121" transform="rotate(180 32.3896 46.3162)" fill="white"/>
<circle cx="32.3896" cy="16.7161" r="1.74121" transform="rotate(180 32.3896 16.7161)" fill="white"/>
<circle cx="32.3896" cy="31.342" r="1.74121" transform="rotate(180 32.3896 31.342)" fill="white"/>
<circle cx="32.3896" cy="1.74145" r="1.74121" transform="rotate(180 32.3896 1.74145)" fill="white"/>
<circle cx="17.0674" cy="46.3162" r="1.74121" transform="rotate(180 17.0674 46.3162)" fill="white"/>
<circle cx="17.0674" cy="16.7161" r="1.74121" transform="rotate(180 17.0674 16.7161)" fill="white"/>
<circle cx="17.0674" cy="31.342" r="1.74121" transform="rotate(180 17.0674 31.342)" fill="white"/>
<circle cx="17.0674" cy="1.74145" r="1.74121" transform="rotate(180 17.0674 1.74145)" fill="white"/>
<circle cx="1.74316" cy="46.3162" r="1.74121" transform="rotate(180 1.74316 46.3162)" fill="white"/>
<circle cx="1.74316" cy="16.7161" r="1.74121" transform="rotate(180 1.74316 16.7161)" fill="white"/>
<circle cx="1.74316" cy="31.342" r="1.74121" transform="rotate(180 1.74316 31.342)" fill="white"/>
<circle cx="1.74316" cy="1.74145" r="1.74121" transform="rotate(180 1.74316 1.74145)" fill="white"/>
</svg>
