<svg width="26" height="26" viewBox="0 0 26 26" fill="none" xmlns="http://www.w3.org/2000/svg">
<path d="M23.2781 8.00312H22.0594L19.2969 0.974998C19.1344 0.609373 18.7281 0.446872 18.3625 0.568747C17.9969 0.731247 17.8344 1.1375 17.9563 1.50312L20.5156 8.04375H5.44376L8.00314 1.50312C8.16564 1.1375 7.96251 0.731247 7.59689 0.568747C7.23126 0.406247 6.82501 0.609373 6.66251 0.974998L3.90001 8.00312H2.68126C2.07189 8.00312 1.54376 8.49062 1.54376 9.14062V12.5937C1.54376 13.2031 2.03126 13.7312 2.68126 13.7312H2.72189L3.77814 22.9937C3.94064 24.4156 5.15939 25.5125 6.62189 25.5125H19.2969C20.7594 25.5125 21.9781 24.4156 22.1406 22.9937L23.1969 13.7312H23.2375C23.8469 13.7312 24.375 13.2437 24.375 12.5937V9.14062C24.4156 8.53125 23.9281 8.00312 23.2781 8.00312ZM3.00626 9.425H22.9938V12.2687H3.00626V9.425ZM20.7594 22.7906C20.6781 23.5219 20.0688 24.05 19.3375 24.05H6.66251C5.93126 24.05 5.32189 23.5219 5.24064 22.7906L4.18439 13.6906H21.8156L20.7594 22.7906Z" fill="#212B36"/>
<path d="M8.73436 20.6375C9.14061 20.6375 9.46561 20.3125 9.46561 19.9062V16.7781C9.46561 16.3719 9.14061 16.0469 8.73436 16.0469C8.32811 16.0469 8.00311 16.3719 8.00311 16.7781V19.9062C8.00311 20.3125 8.32811 20.6375 8.73436 20.6375Z" fill="#212B36"/>
<path d="M17.2656 20.6375C17.6719 20.6375 17.9969 20.3125 17.9969 19.9062V16.7781C17.9969 16.3719 17.6719 16.0469 17.2656 16.0469C16.8594 16.0469 16.5344 16.3719 16.5344 16.7781V19.9062C16.575 20.3125 16.9 20.6375 17.2656 20.6375Z" fill="#212B36"/>
</svg>
