<svg width="160" height="40" viewBox="0 0 160 40" fill="none" xmlns="http://www.w3.org/2000/svg">
<g clip-path="url(#clip0_1_29)">
<path opacity="0.72" d="M39.936 18.3521C39.9164 18.1525 39.824 17.9672 39.6764 17.8315C39.5289 17.6957 39.3365 17.619 39.136 17.6161H19.2001C18.6587 17.6293 18.1302 17.7839 17.6671 18.0646C17.2039 18.3453 16.8223 18.7422 16.56 19.2161C16.3172 19.6398 16.1895 20.1197 16.1895 20.6081C16.1895 21.0964 16.3172 21.5763 16.56 22.0001C16.6293 22.1333 16.7322 22.2462 16.8585 22.3276C16.9847 22.4089 17.13 22.456 17.2799 22.4641H39.184C39.3845 22.4611 39.5769 22.3844 39.7245 22.2487C39.872 22.1129 39.9644 21.9276 39.984 21.7281C39.984 21.1041 39.984 20.5761 39.984 20.1281C39.984 19.6801 39.984 18.9601 39.936 18.3521Z" fill="#3056D3"/>
<path d="M39.9199 18.3521C39.9041 18.1539 39.8151 17.9687 39.6701 17.8327C39.5252 17.6966 39.3347 17.6194 39.136 17.6161H35.936C35.8237 17.6173 35.713 17.6422 35.611 17.6891C35.509 17.7359 35.418 17.8037 35.344 17.8881C35.2694 17.9691 35.2135 18.0656 35.1803 18.1707C35.1471 18.2758 35.1375 18.3868 35.152 18.4961C35.152 19.0081 35.152 19.5201 35.152 20.0961C35.148 22.6492 34.5009 25.1601 33.2705 27.3972C32.0401 29.6343 30.266 31.5254 28.1119 32.896C27.8879 33.04 27.6801 33.2161 27.4401 33.3441C26.266 34.0127 25.0063 34.5187 23.6959 34.8481L25.792 38.5761C25.8632 38.6993 25.9659 38.8014 26.0897 38.8717C26.2134 38.942 26.3536 38.978 26.4959 38.9761C26.5806 38.9913 26.6673 38.9913 26.752 38.9761L27.2639 38.7681L27.728 38.5761C28.4357 38.2821 29.125 37.9455 29.792 37.5681C32.9115 35.8108 35.5035 33.2502 37.2987 30.1523C39.0938 27.0545 40.0266 23.5324 40 19.9521C40 19.3601 39.9679 18.8961 39.9199 18.3521Z" fill="#3056D3"/>
<path d="M28.5946 33.5388C28.4871 33.3562 28.3162 33.2196 28.1146 33.1548H27.8905C27.7516 33.1559 27.6148 33.1887 27.4905 33.2508C25.209 34.549 22.6276 35.2275 20.0026 35.2188C15.9739 35.2103 12.1127 33.6062 9.26396 30.7574C6.41524 27.9087 4.81109 24.0475 4.80264 20.0188C4.81109 15.9901 6.41524 12.1288 9.26396 9.28008C12.1127 6.43136 15.9739 4.82722 20.0026 4.81876C22.6264 4.8196 25.2054 5.49745 27.4905 6.78676C27.61 6.86258 27.7491 6.90153 27.8905 6.89876H28.0665C28.1762 6.87454 28.2798 6.82794 28.3706 6.76187C28.4615 6.69579 28.5378 6.61166 28.5946 6.51476L30.1946 3.73076C30.3004 3.5456 30.3295 3.32639 30.2757 3.12006C30.2219 2.91372 30.0893 2.73666 29.9065 2.62676C26.8949 0.924867 23.4939 0.031889 20.0347 0.0347665C14.7329 0.0432289 9.65075 2.15308 5.90186 5.90198C2.15296 9.65087 0.0431304 14.733 0.034668 20.0348C0.0431304 25.3365 2.15296 30.4187 5.90186 34.1676C9.65075 37.9164 14.7329 40.0263 20.0347 40.0348C23.4939 40.0376 26.8949 39.1446 29.9065 37.4428C29.9981 37.3914 30.0784 37.3222 30.1427 37.2392C30.207 37.1562 30.2539 37.0612 30.2808 36.9597C30.3076 36.8582 30.3139 36.7524 30.2991 36.6485C30.2843 36.5446 30.2488 36.4447 30.1946 36.3548L28.5946 33.5388Z" fill="#3056D3"/>
<path opacity="0.56" d="M22.2879 22.4H17.2321C17.0887 22.3897 16.9497 22.3451 16.8272 22.2699C16.7046 22.1947 16.602 22.0912 16.528 21.968L25.824 38.432C25.8952 38.5552 25.9979 38.6573 26.1217 38.7276C26.2455 38.7979 26.3856 38.8339 26.528 38.832C26.618 38.8472 26.71 38.8472 26.8 38.832C27.8573 38.4513 28.8798 37.9802 29.8561 37.4239C29.9476 37.3726 30.0277 37.3033 30.092 37.2204C30.1563 37.1374 30.2032 37.0423 30.2301 36.9409C30.257 36.8394 30.2633 36.7336 30.2485 36.6297C30.2337 36.5258 30.1981 36.4259 30.144 36.3359L22.2879 22.4Z" fill="#3056D3"/>
</g>
<path d="M62.5224 13.6567V30.6077H59.5416V13.6567H55V10.855H67.0512V13.6567H62.5224Z" fill="#362122"/>
<path d="M77.2473 18.1471H80.1386V30.6077H77.2473V29.3028C76.0618 30.4115 74.7868 30.9659 73.4222 30.9659C71.6994 30.9659 70.2751 30.3433 69.1493 29.0981C68.032 27.8273 67.4733 26.2409 67.4733 24.339C67.4733 22.4712 68.032 20.9147 69.1493 19.6695C70.2665 18.4243 71.6652 17.8017 73.3454 17.8017C74.7953 17.8017 76.0959 18.3987 77.2473 19.5928V18.1471ZM70.4158 24.339C70.4158 25.533 70.7356 26.5053 71.3753 27.2559C72.032 28.0149 72.8593 28.3945 73.8571 28.3945C74.9232 28.3945 75.7846 28.0277 76.4414 27.2942C77.0981 26.5352 77.4264 25.5714 77.4264 24.403C77.4264 23.2345 77.0981 22.2708 76.4414 21.5117C75.7846 20.7697 74.9318 20.3987 73.8827 20.3987C72.8934 20.3987 72.0661 20.774 71.4009 21.5245C70.7441 22.2836 70.4158 23.2217 70.4158 24.339Z" fill="#362122"/>
<path d="M86.6503 18.1471V30.6077H83.7719V18.1471H86.6503ZM83.3369 12.9659C83.3369 12.4627 83.5203 12.0277 83.887 11.661C84.2537 11.2942 84.693 11.1109 85.2047 11.1109C85.7249 11.1109 86.1684 11.2942 86.5352 11.661C86.9019 12.0192 87.0853 12.4584 87.0853 12.9787C87.0853 13.4989 86.9019 13.9424 86.5352 14.3092C86.177 14.6759 85.7377 14.8593 85.2175 14.8593C84.6972 14.8593 84.2537 14.6759 83.887 14.3092C83.5203 13.9424 83.3369 13.4947 83.3369 12.9659Z" fill="#362122"/>
<path d="M93.1748 9V30.6077H90.2964V9H93.1748Z" fill="#362122"/>
<path d="M107.529 20.322H115.691V20.9744C115.691 22.4584 115.516 23.7719 115.166 24.9147C114.825 25.9723 114.249 26.9616 113.439 27.8827C111.606 29.9467 109.273 30.9787 106.441 30.9787C103.678 30.9787 101.311 29.9808 99.3412 27.9851C97.371 25.9808 96.3859 23.5757 96.3859 20.7697C96.3859 17.9041 97.3881 15.4733 99.3923 13.4776C101.397 11.4733 103.836 10.4712 106.71 10.4712C108.254 10.4712 109.695 10.7868 111.034 11.4179C112.313 12.049 113.571 13.0725 114.808 14.4883L112.684 16.5224C111.064 14.3646 109.09 13.2857 106.761 13.2857C104.672 13.2857 102.919 14.0064 101.503 15.4478C100.087 16.8635 99.3795 18.6375 99.3795 20.7697C99.3795 22.9701 100.168 24.7825 101.746 26.2068C103.222 27.5288 104.821 28.1898 106.544 28.1898C108.011 28.1898 109.328 27.6951 110.497 26.7058C111.665 25.7079 112.318 24.5139 112.454 23.1237H107.529V20.322Z" fill="#362122"/>
<path d="M118.902 18.1471H121.78V19.2601C122.309 18.7058 122.778 18.3262 123.188 18.1215C123.606 17.9083 124.1 17.8017 124.672 17.8017C125.431 17.8017 126.224 18.049 127.051 18.5437L125.733 21.1791C125.188 20.7868 124.655 20.5906 124.134 20.5906C122.565 20.5906 121.78 21.7761 121.78 24.1471V30.6077H118.902V18.1471Z" fill="#362122"/>
<path d="M131.989 18.1471V30.6077H129.111V18.1471H131.989ZM128.676 12.9659C128.676 12.4627 128.859 12.0277 129.226 11.661C129.593 11.2942 130.032 11.1109 130.544 11.1109C131.064 11.1109 131.507 11.2942 131.874 11.661C132.241 12.0192 132.424 12.4584 132.424 12.9787C132.424 13.4989 132.241 13.9424 131.874 14.3092C131.516 14.6759 131.077 14.8593 130.557 14.8593C130.036 14.8593 129.593 14.6759 129.226 14.3092C128.859 13.9424 128.676 13.4947 128.676 12.9659Z" fill="#362122"/>
<path d="M144.821 9H147.712V30.6077H144.821V29.3028C143.687 30.4115 142.403 30.9659 140.97 30.9659C139.264 30.9659 137.849 30.3433 136.723 29.0981C135.606 27.8273 135.047 26.2409 135.047 24.339C135.047 22.4797 135.606 20.9275 136.723 19.6823C137.832 18.4286 139.226 17.8017 140.906 17.8017C142.365 17.8017 143.67 18.3987 144.821 19.5928V9ZM137.989 24.339C137.989 25.533 138.309 26.5053 138.949 27.2559C139.606 28.0149 140.433 28.3945 141.431 28.3945C142.497 28.3945 143.358 28.0277 144.015 27.2942C144.672 26.5352 145 25.5714 145 24.403C145 23.2345 144.672 22.2708 144.015 21.5117C143.358 20.7697 142.505 20.3987 141.456 20.3987C140.467 20.3987 139.64 20.774 138.974 21.5245C138.318 22.2836 137.989 23.2217 137.989 24.339Z" fill="#362122"/>
<path d="M158.586 20.2708L156.207 21.5373C155.832 20.7697 155.367 20.3859 154.812 20.3859C154.548 20.3859 154.322 20.4755 154.134 20.6546C153.947 20.8252 153.853 21.0469 153.853 21.3198C153.853 21.7974 154.407 22.2708 155.516 22.7399C157.043 23.3966 158.07 24.0021 158.599 24.5565C159.128 25.1109 159.392 25.8571 159.392 26.7953C159.392 27.9979 158.949 29.0043 158.062 29.8145C157.2 30.5821 156.16 30.9659 154.94 30.9659C152.851 30.9659 151.371 29.9467 150.501 27.9083L152.957 26.7697C153.299 27.3667 153.559 27.7463 153.738 27.9083C154.087 28.2324 154.505 28.3945 154.991 28.3945C155.964 28.3945 156.45 27.951 156.45 27.064C156.45 26.5522 156.075 26.0746 155.324 25.6311C155.034 25.4861 154.744 25.3454 154.454 25.209C154.164 25.0725 153.87 24.9318 153.571 24.7868C152.736 24.3774 152.147 23.968 151.806 23.5586C151.371 23.0384 151.154 22.3689 151.154 21.5501C151.154 20.467 151.525 19.5714 152.267 18.8635C153.026 18.1557 153.947 17.8017 155.03 17.8017C156.625 17.8017 157.81 18.6247 158.586 20.2708Z" fill="#362122"/>
<defs>
<clipPath id="clip0_1_29">
<rect width="40" height="40" fill="white"/>
</clipPath>
</defs>
</svg>
