<svg width="39" height="47" viewBox="0 0 39 47" fill="none" xmlns="http://www.w3.org/2000/svg">
<path d="M19.5002 0.95459C9.29235 0.95459 0.920471 9.03272 0.920471 18.8733C0.920471 26.7312 12.1564 39.7296 17.0033 45.0171C17.6642 45.7515 18.5455 46.1186 19.5002 46.1186C20.4548 46.1186 21.3361 45.7515 21.997 45.0171C26.8439 39.803 38.0798 26.7312 38.0798 18.8733C38.0798 8.95928 29.708 0.95459 19.5002 0.95459ZM20.0877 43.2546C19.7205 43.6218 19.2064 43.6218 18.9127 43.2546C15.3142 39.3624 3.49078 25.9968 3.49078 18.8733C3.49078 10.3546 10.6877 3.5249 19.5002 3.5249C28.3127 3.5249 35.5095 10.428 35.5095 18.8733C35.5095 25.9968 23.6861 39.289 20.0877 43.2546Z" fill="#3056D3"/>
<path d="M19.5002 11.5295C15.1673 11.5295 11.5689 15.0545 11.5689 19.4608C11.5689 23.7936 15.0939 27.392 19.5002 27.392C23.9064 27.392 27.4314 23.867 27.4314 19.4608C27.4314 15.0545 23.833 11.5295 19.5002 11.5295ZM19.5002 24.7483C16.5627 24.7483 14.1392 22.3249 14.1392 19.3874C14.1392 16.4499 16.5627 14.0264 19.5002 14.0264C22.4377 14.0264 24.8611 16.4499 24.8611 19.3874C24.8611 22.3249 22.4377 24.7483 19.5002 24.7483Z" fill="#3056D3"/>
</svg>
