<svg width="18" height="18" viewBox="0 0 18 18" fill="none" xmlns="http://www.w3.org/2000/svg">
<path d="M8.91783 12.4993C10.6927 12.4993 12.1316 11.091 12.1316 9.35366C12.1316 7.61637 10.6927 6.20801 8.91783 6.20801C7.14292 6.20801 5.70407 7.61637 5.70407 9.35366C5.70407 11.091 7.14292 12.4993 8.91783 12.4993Z" fill="#CDCED6"/>
<path d="M12.4085 0.947266H5.37146C2.57327 0.947266 0.301483 3.17092 0.301483 5.90981V12.7435C0.301483 15.5366 2.57327 17.7603 5.37146 17.7603H12.3531C15.2066 17.7603 17.4784 15.5366 17.4784 12.7977V5.90981C17.4784 3.17092 15.2066 0.947266 12.4085 0.947266ZM8.91767 13.4757C6.56276 13.4757 4.70654 11.6045 4.70654 9.35377C4.70654 7.10299 6.59047 5.23187 8.91767 5.23187C11.2172 5.23187 13.1011 7.10299 13.1011 9.35377C13.1011 11.6045 11.2449 13.4757 8.91767 13.4757ZM14.7357 5.61152C14.4586 5.90981 14.043 6.07252 13.5721 6.07252C13.1565 6.07252 12.7409 5.90981 12.4085 5.61152C12.1037 5.31322 11.9375 4.93357 11.9375 4.47257C11.9375 4.01157 12.1037 3.65904 12.4085 3.33363C12.7132 3.00821 13.1011 2.84551 13.5721 2.84551C13.9876 2.84551 14.4309 3.00821 14.7357 3.30651C15.0127 3.65904 15.2066 4.06581 15.2066 4.49969C15.1789 4.93357 15.0127 5.31322 14.7357 5.61152Z" fill="#CDCED6"/>
<path d="M13.6 3.82178C13.2398 3.82178 12.9351 4.12007 12.9351 4.4726C12.9351 4.82513 13.2398 5.12343 13.6 5.12343C13.9601 5.12343 14.2649 4.82513 14.2649 4.4726C14.2649 4.12007 13.9878 3.82178 13.6 3.82178Z" fill="#CDCED6"/>
</svg>
