<svg width="170" height="41" viewBox="0 0 170 41" fill="none" xmlns="http://www.w3.org/2000/svg">
<path d="M44 20.5C44 24.625 40.6237 28 36.4612 28C31.0037 28 28.2287 24.2499 25.5 20.5C22.7713 16.75 19.9962 13 14.5387 13C10.3762 13 7 16.375 7 20.5" stroke="white" stroke-width="4" stroke-miterlimit="10"/>
<path d="M44 20.5C44 16.375 40.6237 13 36.4612 13C31.0038 13 28.2288 16.75 25.5 20.5C22.7712 24.25 19.9962 28 14.5387 28C10.3762 28 7 24.625 7 20.5" stroke="white" stroke-width="4" stroke-miterlimit="10"/>
<path d="M58.5344 29.958V10.597H61.072V27.4326H69.0016V29.958H58.5344ZM71.549 14.6376V11.9439H74.0866V14.6376H71.549ZM71.549 29.958V15.9844H74.0866V29.958H71.549ZM105.834 14.6376V11.9439H108.372V14.6376H105.834ZM105.834 29.958V15.9844H108.372V29.958H105.834ZM88.3298 21.0772C88.2508 20.5301 88.1316 19.9408 87.9334 19.3515C87.7352 18.7623 87.4179 18.2151 87.061 17.71C86.6646 17.205 86.1885 16.7841 85.5545 16.4895C84.9197 16.1949 84.1665 16.0265 83.2545 16.0265C82.0654 16.0265 81.0738 16.2791 80.2415 16.8262C79.8451 17.0788 79.5278 17.3733 79.2104 17.71V16.0265H76.6728V30H79.2104V23.0554H79.2499C79.2499 22.2136 79.3296 21.5402 79.5278 20.9509C79.6865 20.3617 79.9241 19.8987 80.2415 19.562C80.5589 19.2253 80.9151 18.9728 81.3121 18.8044C81.7085 18.6361 82.1444 18.5519 82.6205 18.5519C83.3342 18.5519 83.8893 18.7202 84.3252 19.0148C84.7617 19.3095 85.0784 19.7303 85.3563 20.1934C85.594 20.6984 85.7527 21.2035 85.8317 21.7927C85.9114 22.3819 85.9509 22.9291 85.9509 23.4763V30H88.528V22.5503C88.449 22.1294 88.4095 21.6243 88.3298 21.0772ZM152.41 21.0772C152.331 20.5301 152.212 19.9408 152.014 19.3515C151.816 18.7623 151.498 18.2151 151.141 17.71C150.745 17.205 150.27 16.7841 149.635 16.4895C149.001 16.1949 148.248 16.0265 147.336 16.0265C146.146 16.0265 145.155 16.2791 144.322 16.8262C143.926 17.0788 143.608 17.3733 143.291 17.71V16.0265H140.753V30H143.291V23.0554H143.331C143.331 22.2136 143.41 21.5402 143.608 20.9509C143.767 20.3617 144.005 19.8987 144.322 19.562C144.639 19.2253 144.996 18.9728 145.393 18.8044C145.789 18.6361 146.225 18.5519 146.701 18.5519C147.415 18.5519 147.97 18.7202 148.406 19.0148C148.842 19.3095 149.16 19.7303 149.397 20.1934C149.635 20.6984 149.794 21.2035 149.873 21.7927C149.952 22.3819 149.992 22.9291 149.992 23.4763V30H152.569V22.5503C152.529 22.1294 152.49 21.6243 152.41 21.0772ZM102.256 23.6867H103.525C103.604 22.0873 103.445 20.7404 102.97 19.562C102.494 18.4256 101.78 17.4997 100.868 16.9104C99.9169 16.2791 98.7672 15.9844 97.4589 15.9844C96.1901 15.9844 95.0398 16.2791 94.0883 16.8683C93.1369 17.4575 92.3836 18.2572 91.8286 19.3515C91.2735 20.4037 91.0351 21.6665 91.0351 23.0974C91.0351 24.4443 91.313 25.6649 91.8681 26.7171C92.4231 27.7693 93.1764 28.569 94.168 29.1162C95.159 29.7054 96.3086 30 97.6169 30C98.8857 30 100.036 29.6633 101.107 29.032C102.137 28.4007 102.931 27.4747 103.445 26.2962L100.948 25.4965C100.631 26.17 100.155 26.7171 99.5995 27.0538C99.0049 27.4326 98.3307 27.601 97.5379 27.601C96.3086 27.601 95.3966 27.2222 94.7626 26.4225C94.247 25.7491 93.9296 24.8652 93.8506 23.7708H101.107H102.256V23.6867ZM94.6434 19.4778C95.2782 18.6781 96.2296 18.2572 97.4984 18.2572C98.648 18.2572 99.5205 18.6361 100.076 19.3515C100.472 19.8566 100.75 20.6142 100.868 21.5402H93.771C93.9296 20.6984 94.247 20.025 94.6434 19.4778ZM117.025 29.958C115.676 29.958 114.527 29.6633 113.575 29.032C112.623 28.4427 111.909 27.601 111.394 26.5487C110.879 25.4965 110.641 24.2759 110.641 22.9712C110.641 21.6243 110.918 20.4037 111.434 19.3515C111.949 18.2993 112.663 17.4575 113.615 16.8683C114.566 16.2791 115.716 15.9844 117.025 15.9844C118.452 15.9844 119.681 16.3632 120.712 17.0788C121.742 17.7942 122.417 18.8044 122.734 20.025L120.196 20.7404C119.959 19.9829 119.522 19.4357 118.967 19.0148C118.412 18.5939 117.739 18.3835 116.985 18.3835C116.152 18.3835 115.478 18.5939 114.923 18.9728C114.368 19.3515 113.972 19.8987 113.734 20.6142C113.456 21.2876 113.337 22.0873 113.337 22.9712C113.337 24.318 113.654 25.4544 114.289 26.2962C114.883 27.138 115.795 27.5589 117.025 27.5589C117.857 27.5589 118.492 27.3484 119.007 26.9696C119.522 26.5909 119.919 26.0437 120.157 25.3281L122.734 25.9595C122.298 27.2643 121.584 28.2323 120.593 28.9478C119.641 29.6213 118.412 29.958 117.025 29.958ZM131.744 29.958C130.435 29.958 129.285 29.6633 128.334 29.0741C127.382 28.4848 126.629 27.6431 126.114 26.5909C125.598 25.5386 125.32 24.318 125.32 22.9712C125.32 21.5823 125.598 20.3617 126.114 19.3095C126.669 18.2572 127.382 17.4575 128.373 16.8683C129.325 16.2791 130.475 15.9844 131.744 15.9844C133.052 15.9844 134.202 16.2791 135.153 16.8683C136.106 17.4575 136.859 18.2993 137.414 19.3515C137.929 20.4037 138.207 21.6243 138.207 22.9712C138.207 24.3601 137.929 25.5807 137.414 26.6329C136.898 27.6851 136.145 28.4849 135.153 29.1162C134.162 29.6633 133.052 29.958 131.744 29.958ZM131.744 27.5589C133.013 27.5589 133.925 27.138 134.559 26.2962C135.194 25.4544 135.51 24.3601 135.51 22.9712C135.51 21.5823 135.194 20.4879 134.559 19.6462C133.925 18.8044 133.013 18.3835 131.744 18.3835C130.872 18.3835 130.197 18.5939 129.642 18.9728C129.087 19.3515 128.691 19.8987 128.413 20.5721C128.136 21.2455 128.017 22.0452 128.017 22.9291C128.017 24.318 128.334 25.4123 128.968 26.2542C129.563 27.138 130.515 27.5589 131.744 27.5589ZM160.786 29.958C159.2 29.958 157.892 29.6213 156.86 28.9057C155.87 28.1902 155.235 27.1801 154.997 25.9174L157.614 25.4965C157.772 26.17 158.169 26.7171 158.724 27.138C159.319 27.5168 160.033 27.7273 160.905 27.7273C161.698 27.7273 162.332 27.5589 162.769 27.2222C163.205 26.8854 163.442 26.4646 163.442 25.8753C163.442 25.5386 163.363 25.2861 163.205 25.0756C163.046 24.8652 162.729 24.6547 162.214 24.4864C161.698 24.318 160.945 24.0655 159.914 23.7708C158.804 23.4763 157.892 23.1396 157.217 22.8028C156.543 22.4661 156.068 22.0452 155.79 21.6243C155.513 21.1614 155.354 20.6142 155.354 19.9829C155.354 19.1832 155.552 18.4677 155.988 17.8784C156.425 17.2892 157.019 16.8262 157.772 16.4895C158.526 16.1528 159.438 15.9844 160.469 15.9844C161.46 15.9844 162.372 16.1528 163.165 16.4474C163.958 16.7841 164.593 17.205 165.068 17.7942C165.544 18.3835 165.861 19.0569 165.94 19.8566L163.324 20.3196C163.244 19.6882 162.927 19.1832 162.451 18.8044C161.936 18.4256 161.302 18.2151 160.508 18.2151C159.755 18.1731 159.121 18.2993 158.645 18.5939C158.169 18.8886 157.931 19.2673 157.931 19.7724C157.931 20.067 158.01 20.3196 158.209 20.5301C158.407 20.7404 158.764 20.9509 159.279 21.1193C159.794 21.2876 160.588 21.5402 161.618 21.7927C162.728 22.0873 163.601 22.3819 164.236 22.7607C164.87 23.0974 165.346 23.5183 165.623 23.9813C165.901 24.4443 166.06 25.0336 166.06 25.707C166.06 27.0117 165.584 28.064 164.632 28.7795C163.76 29.5791 162.451 29.958 160.786 29.958Z" fill="white"/>
</svg>
