<svg width="18" height="18" viewBox="0 0 18 18" fill="none" xmlns="http://www.w3.org/2000/svg">
<path d="M16.7823 0.947266H1.84869C1.14294 0.947266 0.578339 1.49735 0.578339 2.18496V16.7622C0.578339 17.4223 1.14294 17.9999 1.84869 17.9999H16.7259C17.4316 17.9999 17.9962 17.4498 17.9962 16.7622V2.15745C18.0527 1.49735 17.4881 0.947266 16.7823 0.947266ZM5.74442 15.442H3.17549V7.32825H5.74442V15.442ZM4.44584 6.20058C3.59894 6.20058 2.94965 5.54047 2.94965 4.74285C2.94965 3.94523 3.62717 3.28513 4.44584 3.28513C5.26451 3.28513 5.94203 3.94523 5.94203 4.74285C5.94203 5.54047 5.32097 6.20058 4.44584 6.20058ZM15.4837 15.442H12.9148V11.5089C12.9148 10.5738 12.8866 9.33606 11.5598 9.33606C10.2047 9.33606 10.0071 10.3812 10.0071 11.4264V15.442H7.43821V7.32825H9.95068V8.45592H9.97891C10.3459 7.79582 11.1646 7.13572 12.4349 7.13572C15.0603 7.13572 15.5402 8.78598 15.5402 11.0413V15.442H15.4837Z" fill="#CDCED6"/>
</svg>
