<svg width="45" height="45" viewBox="0 0 45 45" fill="none" xmlns="http://www.w3.org/2000/svg">
<circle cx="22.5" cy="22.5" r="22.5" fill="#3056D3"/>
<g clip-path="url(#clip0_1_249)">
<path d="M27.3438 32.156C24.7813 32.156 21.0938 30.3123 17.7188 27.0935C13.125 22.7185 11.1563 17.8435 13.1563 15.7185C13.25 15.6248 13.3438 15.5623 13.4688 15.4998L16.0938 14.031C16.6875 13.7185 17.4375 13.8748 17.8125 14.406L19.7188 17.1248C19.9063 17.406 20 17.7498 19.9375 18.0623C19.875 18.406 19.6875 18.6873 19.4063 18.8748L18.25 19.6248C18.1875 19.656 18.1875 19.6873 18.1875 19.7185C18.1875 19.7498 18.1875 19.781 18.2188 19.8123C19.0625 21.0623 21.4688 24.2498 25.2813 26.531C25.375 26.5935 25.5313 26.5623 25.5938 26.4998L26.4063 25.406C26.8125 24.8435 27.5938 24.7185 28.1875 25.0935L31.0313 26.906C31.625 27.281 31.8125 28.031 31.4375 28.6248L29.875 31.1248C29.8125 31.2498 29.7188 31.3435 29.625 31.406C29.0313 31.9373 28.25 32.156 27.3438 32.156ZM16.75 14.9373C16.7188 14.9373 16.6875 14.9373 16.625 14.9685L14 16.4373C13.9688 16.4685 13.9688 16.4685 13.9375 16.4685C12.625 17.8748 14.125 22.156 18.5 26.3123C22.875 30.4685 27.4063 31.906 28.9063 30.6248C28.9063 30.6248 28.9063 30.6248 28.9375 30.5935L30.5 28.0935C30.5313 28.031 30.5313 27.9373 30.4375 27.8748L27.5938 26.0623C27.5 25.9998 27.3438 26.031 27.2813 26.0935L26.4688 27.1873C26.0625 27.7185 25.3125 27.8748 24.7188 27.531C20.6875 25.1248 18.1875 21.781 17.3125 20.4373C17.125 20.156 17.0625 19.8435 17.125 19.4998C17.1875 19.1873 17.375 18.8748 17.6563 18.7185L18.8125 17.9373C18.875 17.906 18.875 17.8748 18.875 17.8435C18.875 17.8123 18.875 17.781 18.8438 17.7185L16.9375 14.9998C16.9063 14.9685 16.8125 14.9373 16.75 14.9373Z" fill="white"/>
</g>
<defs>
<clipPath id="clip0_1_249">
<rect width="20" height="20" fill="white" transform="translate(12 13)"/>
</clipPath>
</defs>
</svg>
